<svg width="431" height="80" viewBox="0 0 431 80" fill="none" xmlns="http://www.w3.org/2000/svg">
<path d="M44.3139 80C32.0094 80 21.1746 71.8961 17.6983 60.0928L0 0V0C14.1303 0 26.3638 9.81631 29.4251 23.611L35.1079 49.2187H35.732L43.8388 18.4096C46.6933 7.56122 56.5015 0 67.7192 0V0L80.6701 49.375H81.2942L86.9928 23.6145C90.0444 9.81983 102.274 0 116.402 0V0L98.7038 60.0928C95.2276 71.8961 84.3928 80 72.0882 80V80L58.6038 35.6111C58.55 35.4337 58.3864 35.3125 58.2011 35.3125V35.3125C58.0157 35.3125 57.8522 35.4337 57.7983 35.6111L44.3139 80V80Z" fill="url(#paint0_linear_3_52)"/>
<path d="M168.701 17.2671L163.491 38.5H156.233L153.311 25.4892L150.33 38.5H143.071L137.921 17.2671H144.306L146.776 31.7838L150.119 17.2671H156.594L159.847 31.6633L162.317 17.2671H168.701ZM187.349 29.8562C187.349 30.318 187.319 30.7798 187.259 31.2416H176.085C176.146 32.1653 176.397 32.858 176.838 33.3198C177.3 33.7615 177.882 33.9824 178.585 33.9824C179.569 33.9824 180.272 33.5406 180.693 32.6572H186.988C186.727 33.8217 186.215 34.8658 185.452 35.7894C184.709 36.6929 183.765 37.4057 182.621 37.9278C181.477 38.4498 180.212 38.7108 178.826 38.7108C177.16 38.7108 175.674 38.3595 174.369 37.6567C173.084 36.954 172.07 35.95 171.327 34.6449C170.604 33.3398 170.243 31.8038 170.243 30.0369C170.243 28.27 170.604 26.7441 171.327 25.4591C172.05 24.154 173.054 23.15 174.339 22.4473C175.644 21.7445 177.14 21.3932 178.826 21.3932C180.493 21.3932 181.968 21.7345 183.253 22.4172C184.538 23.0998 185.542 24.0837 186.265 25.3687C186.988 26.6336 187.349 28.1295 187.349 29.8562ZM181.326 28.3805C181.326 27.6576 181.085 27.0955 180.603 26.6939C180.121 26.2722 179.519 26.0614 178.796 26.0614C178.073 26.0614 177.481 26.2622 177.019 26.6638C176.557 27.0453 176.256 27.6175 176.116 28.3805H181.326ZM195.668 23.9532C196.13 23.15 196.783 22.5276 197.626 22.0859C198.469 21.6241 199.463 21.3932 200.608 21.3932C201.953 21.3932 203.168 21.7445 204.252 22.4473C205.356 23.15 206.219 24.154 206.842 25.4591C207.484 26.7642 207.806 28.2901 207.806 30.0369C207.806 31.7838 207.484 33.3198 206.842 34.6449C206.219 35.95 205.356 36.954 204.252 37.6567C203.168 38.3595 201.953 38.7108 200.608 38.7108C199.463 38.7108 198.469 38.49 197.626 38.0482C196.783 37.5864 196.13 36.954 195.668 36.1508V38.5H189.765V16.2129H195.668V23.9532ZM201.812 30.0369C201.812 28.9326 201.511 28.0793 200.909 27.4769C200.326 26.8545 199.604 26.5433 198.74 26.5433C197.877 26.5433 197.144 26.8545 196.542 27.4769C195.959 28.0994 195.668 28.9527 195.668 30.0369C195.668 31.1413 195.959 32.0046 196.542 32.6271C197.144 33.2495 197.877 33.5607 198.74 33.5607C199.604 33.5607 200.326 33.2495 200.909 32.6271C201.511 31.9845 201.812 31.1212 201.812 30.0369ZM227.011 24.3447C227.011 25.6297 226.71 26.8043 226.108 27.8685C225.526 28.9125 224.632 29.7558 223.427 30.3984C222.243 31.0208 220.787 31.332 219.06 31.332H216.139V38.5H210.236V17.2671H219.06C220.767 17.2671 222.213 17.5682 223.397 18.1706C224.602 18.7729 225.505 19.6062 226.108 20.6704C226.71 21.7345 227.011 22.9593 227.011 24.3447ZM218.488 26.6336C220.155 26.6336 220.988 25.8707 220.988 24.3447C220.988 22.7987 220.155 22.0256 218.488 22.0256H216.139V26.6336H218.488ZM235.286 24.5856C235.949 23.6219 236.752 22.8589 237.695 22.2967C238.639 21.7345 239.653 21.4534 240.737 21.4534V27.748H239.081C237.796 27.748 236.842 27.999 236.22 28.5009C235.597 29.0029 235.286 29.8763 235.286 31.1212V38.5H229.383V21.604H235.286V24.5856ZM250.714 38.7108C249.028 38.7108 247.512 38.3595 246.166 37.6567C244.841 36.954 243.797 35.95 243.034 34.6449C242.271 33.3398 241.89 31.8038 241.89 30.0369C241.89 28.2901 242.271 26.7642 243.034 25.4591C243.817 24.154 244.871 23.15 246.197 22.4473C247.542 21.7445 249.058 21.3932 250.744 21.3932C252.431 21.3932 253.937 21.7445 255.262 22.4473C256.607 23.15 257.661 24.154 258.424 25.4591C259.207 26.7642 259.599 28.2901 259.599 30.0369C259.599 31.7838 259.207 33.3198 258.424 34.6449C257.661 35.95 256.607 36.954 255.262 37.6567C253.917 38.3595 252.401 38.7108 250.714 38.7108ZM250.714 33.5908C251.537 33.5908 252.22 33.2896 252.762 32.6873C253.324 32.0649 253.605 31.1814 253.605 30.0369C253.605 28.8925 253.324 28.0191 252.762 27.4167C252.22 26.8144 251.547 26.5132 250.744 26.5132C249.941 26.5132 249.269 26.8144 248.726 27.4167C248.184 28.0191 247.913 28.8925 247.913 30.0369C247.913 31.2015 248.174 32.0849 248.696 32.6873C249.218 33.2896 249.891 33.5908 250.714 33.5908ZM267.042 27.8384C267.042 25.7502 267.474 23.8929 268.337 22.2666C269.221 20.6202 270.466 19.3452 272.072 18.4416C273.678 17.518 275.526 17.0562 277.614 17.0562C280.264 17.0562 282.493 17.769 284.3 19.1946C286.107 20.6001 287.271 22.5176 287.793 24.9471H281.439C281.057 24.1439 280.525 23.5315 279.842 23.1099C279.18 22.6882 278.407 22.4774 277.523 22.4774C276.158 22.4774 275.064 22.9693 274.241 23.9532C273.437 24.9169 273.036 26.212 273.036 27.8384C273.036 29.4848 273.437 30.7999 274.241 31.7838C275.064 32.7475 276.158 33.2294 277.523 33.2294C278.407 33.2294 279.18 33.0186 279.842 32.5969C280.525 32.1753 281.057 31.5629 281.439 30.7598H287.793C287.271 33.1893 286.107 35.1168 284.3 36.5424C282.493 37.9478 280.264 38.6506 277.614 38.6506C275.526 38.6506 273.678 38.1988 272.072 37.2953C270.466 36.3717 269.221 35.0967 268.337 33.4704C267.474 31.8239 267.042 29.9466 267.042 27.8384ZM296.492 24.5856C297.154 23.6219 297.958 22.8589 298.901 22.2967C299.845 21.7345 300.859 21.4534 301.943 21.4534V27.748H300.287C299.002 27.748 298.048 27.999 297.425 28.5009C296.803 29.0029 296.492 29.8763 296.492 31.1212V38.5H290.589V21.604H296.492V24.5856ZM320.202 29.8562C320.202 30.318 320.172 30.7798 320.112 31.2416H308.938C308.999 32.1653 309.25 32.858 309.691 33.3198C310.153 33.7615 310.735 33.9824 311.438 33.9824C312.422 33.9824 313.125 33.5406 313.546 32.6572H319.841C319.58 33.8217 319.068 34.8658 318.305 35.7894C317.562 36.6929 316.618 37.4057 315.474 37.9278C314.329 38.4498 313.065 38.7108 311.679 38.7108C310.013 38.7108 308.527 38.3595 307.222 37.6567C305.937 36.954 304.923 35.95 304.18 34.6449C303.457 33.3398 303.096 31.8038 303.096 30.0369C303.096 28.27 303.457 26.7441 304.18 25.4591C304.903 24.154 305.907 23.15 307.192 22.4473C308.497 21.7445 309.993 21.3932 311.679 21.3932C313.346 21.3932 314.821 21.7345 316.106 22.4172C317.391 23.0998 318.395 24.0837 319.118 25.3687C319.841 26.6336 320.202 28.1295 320.202 29.8562ZM314.179 28.3805C314.179 27.6576 313.938 27.0955 313.456 26.6939C312.974 26.2722 312.372 26.0614 311.649 26.0614C310.926 26.0614 310.334 26.2622 309.872 26.6638C309.41 27.0453 309.109 27.6175 308.969 28.3805H314.179ZM321.654 30.0369C321.654 28.2901 321.966 26.7642 322.588 25.4591C323.231 24.154 324.094 23.15 325.178 22.4473C326.282 21.7445 327.507 21.3932 328.853 21.3932C330.017 21.3932 331.021 21.6241 331.864 22.0859C332.708 22.5477 333.36 23.1701 333.822 23.9532V21.604H339.725V38.5H333.822V36.1508C333.36 36.9339 332.698 37.5563 331.834 38.0181C330.991 38.4799 329.997 38.7108 328.853 38.7108C327.507 38.7108 326.282 38.3595 325.178 37.6567C324.094 36.954 323.231 35.95 322.588 34.6449C321.966 33.3198 321.654 31.7838 321.654 30.0369ZM333.822 30.0369C333.822 28.9527 333.521 28.0994 332.918 27.4769C332.336 26.8545 331.613 26.5433 330.75 26.5433C329.866 26.5433 329.134 26.8545 328.551 27.4769C327.969 28.0793 327.678 28.9326 327.678 30.0369C327.678 31.1212 327.969 31.9845 328.551 32.6271C329.134 33.2495 329.866 33.5607 330.75 33.5607C331.613 33.5607 332.336 33.2495 332.918 32.6271C333.521 32.0046 333.822 31.1413 333.822 30.0369ZM353.058 33.4704V38.5H350.498C346.181 38.5 344.022 36.3616 344.022 32.0849V26.5132H341.944V21.604H344.022V17.508H349.956V21.604H353.028V26.5132H349.956V32.1753C349.956 32.6371 350.056 32.9684 350.257 33.1692C350.478 33.37 350.839 33.4704 351.341 33.4704H353.058ZM358.747 20.0379C357.703 20.0379 356.859 19.7568 356.217 19.1946C355.595 18.6123 355.283 17.8895 355.283 17.0261C355.283 16.1427 355.595 15.4098 356.217 14.8275C356.859 14.2453 357.703 13.9541 358.747 13.9541C359.771 13.9541 360.594 14.2453 361.217 14.8275C361.859 15.4098 362.18 16.1427 362.18 17.0261C362.18 17.8895 361.859 18.6123 361.217 19.1946C360.594 19.7568 359.771 20.0379 358.747 20.0379ZM361.668 21.604V38.5H355.765V21.604H361.668ZM372.891 38.7108C371.204 38.7108 369.688 38.3595 368.343 37.6567C367.018 36.954 365.974 35.95 365.211 34.6449C364.448 33.3398 364.066 31.8038 364.066 30.0369C364.066 28.2901 364.448 26.7642 365.211 25.4591C365.994 24.154 367.048 23.15 368.373 22.4473C369.718 21.7445 371.234 21.3932 372.921 21.3932C374.607 21.3932 376.113 21.7445 377.438 22.4473C378.784 23.15 379.838 24.154 380.601 25.4591C381.384 26.7642 381.775 28.2901 381.775 30.0369C381.775 31.7838 381.384 33.3198 380.601 34.6449C379.838 35.95 378.784 36.954 377.438 37.6567C376.093 38.3595 374.577 38.7108 372.891 38.7108ZM372.891 33.5908C373.714 33.5908 374.397 33.2896 374.939 32.6873C375.501 32.0649 375.782 31.1814 375.782 30.0369C375.782 28.8925 375.501 28.0191 374.939 27.4167C374.397 26.8144 373.724 26.5132 372.921 26.5132C372.118 26.5132 371.445 26.8144 370.903 27.4167C370.361 28.0191 370.09 28.8925 370.09 30.0369C370.09 31.2015 370.351 32.0849 370.873 32.6873C371.395 33.2896 372.067 33.5908 372.891 33.5908ZM395.23 21.4534C397.178 21.4534 398.724 22.106 399.868 23.4111C401.013 24.6961 401.585 26.4429 401.585 28.6515V38.5H395.682V29.4346C395.682 28.4708 395.431 27.7179 394.929 27.1758C394.427 26.6136 393.754 26.3325 392.911 26.3325C392.028 26.3325 391.335 26.6136 390.833 27.1758C390.331 27.7179 390.08 28.4708 390.08 29.4346V38.5H384.177V21.604H390.08V24.0134C390.602 23.2504 391.305 22.638 392.188 22.1762C393.072 21.6944 394.086 21.4534 395.23 21.4534ZM412.022 38.7108C410.496 38.7108 409.131 38.4598 407.926 37.9579C406.742 37.4358 405.798 36.7331 405.095 35.8496C404.412 34.9461 404.031 33.9322 403.951 32.8078H409.673C409.753 33.3499 410.004 33.7715 410.426 34.0727C410.848 34.3739 411.37 34.5245 411.992 34.5245C412.474 34.5245 412.855 34.4241 413.137 34.2233C413.418 34.0225 413.558 33.7615 413.558 33.4402C413.558 33.0186 413.327 32.7074 412.865 32.5066C412.404 32.3058 411.641 32.0849 410.577 31.844C409.372 31.6031 408.368 31.332 407.565 31.0308C406.762 30.7296 406.059 30.2377 405.457 29.5551C404.874 28.8724 404.583 27.9488 404.583 26.7842C404.583 25.7803 404.854 24.8768 405.396 24.0736C405.938 23.2504 406.731 22.5979 407.776 22.116C408.84 21.6341 410.115 21.3932 411.601 21.3932C413.809 21.3932 415.546 21.9353 416.811 23.0195C418.076 24.1038 418.809 25.5293 419.009 27.2962H413.679C413.578 26.7541 413.337 26.3425 412.956 26.0614C412.594 25.7602 412.102 25.6096 411.48 25.6096C410.998 25.6096 410.627 25.7 410.366 25.8807C410.125 26.0614 410.004 26.3124 410.004 26.6336C410.004 27.0352 410.235 27.3464 410.697 27.5673C411.159 27.7681 411.902 27.9789 412.926 28.1998C414.15 28.4608 415.164 28.7519 415.968 29.0732C416.791 29.3944 417.504 29.9165 418.106 30.6393C418.728 31.342 419.04 32.3058 419.04 33.5306C419.04 34.5144 418.748 35.3979 418.166 36.1809C417.604 36.964 416.791 37.5864 415.727 38.0482C414.683 38.49 413.448 38.7108 412.022 38.7108Z" fill="black"/>
<path d="M424.803 38.7409C423.759 38.7409 422.915 38.4598 422.273 37.8976C421.651 37.3154 421.339 36.5825 421.339 35.6991C421.339 34.8156 421.651 34.0827 422.273 33.5005C422.915 32.9182 423.759 32.6271 424.803 32.6271C425.827 32.6271 426.65 32.9182 427.273 33.5005C427.915 34.0827 428.236 34.8156 428.236 35.6991C428.236 36.5624 427.915 37.2853 427.273 37.8675C426.65 38.4498 425.827 38.7409 424.803 38.7409Z" fill="url(#paint1_linear_3_52)"/>
<path opacity="0.5" d="M142.079 69.5H137.931L139.969 56.5711H143.868C145.012 56.5711 146.002 56.8155 146.836 57.3042C147.671 57.793 148.32 58.4666 148.785 59.3249C149.25 60.1714 149.483 61.143 149.483 62.2398C149.483 63.3604 149.298 64.3678 148.928 65.2619C148.559 66.1441 148.04 66.9071 147.373 67.5508C146.717 68.1827 145.936 68.6655 145.03 68.9993C144.136 69.3331 143.152 69.5 142.079 69.5ZM141.525 57.3579L139.737 68.7132L139.057 67.9264H142.222C143.295 67.9264 144.243 67.7058 145.066 67.2647C145.888 66.8117 146.532 66.162 146.997 65.3155C147.474 64.4572 147.712 63.4319 147.712 62.2398C147.712 61.4172 147.551 60.7019 147.229 60.0939C146.908 59.474 146.437 58.9911 145.817 58.6454C145.197 58.2997 144.458 58.1268 143.599 58.1268H140.613L141.525 57.3579ZM150.392 69.5L151.787 60.7555H153.379L152.002 69.5H150.392ZM152.914 58.6454C152.651 58.6454 152.431 58.562 152.252 58.3951C152.073 58.2162 151.984 57.9957 151.984 57.7334C151.984 57.5188 152.043 57.3162 152.163 57.1254C152.282 56.9347 152.437 56.7797 152.628 56.6605C152.818 56.5293 153.021 56.4638 153.236 56.4638C153.51 56.4638 153.73 56.5532 153.897 56.732C154.064 56.9108 154.148 57.1254 154.148 57.3758C154.148 57.5904 154.088 57.799 153.969 58.0016C153.861 58.1924 153.712 58.3474 153.522 58.4666C153.331 58.5858 153.128 58.6454 152.914 58.6454ZM154.498 65.6195C154.498 64.9042 154.617 64.2426 154.856 63.6346C155.094 63.0147 155.428 62.4782 155.857 62.0252C156.298 61.5602 156.799 61.1966 157.359 60.9344C157.932 60.6602 158.546 60.5231 159.201 60.5231C159.94 60.5231 160.572 60.7138 161.097 61.0953C161.633 61.4649 161.967 61.9715 162.098 62.6153H161.884L162.349 60.7555H163.833L162.509 69.1602C162.283 70.6385 161.776 71.7532 160.989 72.5042C160.215 73.2553 159.177 73.6308 157.878 73.6308C157.091 73.6308 156.394 73.4818 155.786 73.1838C155.19 72.8976 154.719 72.4864 154.373 71.9499C154.039 71.4134 153.866 70.7935 153.854 70.0901H155.464C155.5 70.722 155.732 71.2227 156.161 71.5922C156.602 71.9737 157.187 72.1645 157.914 72.1645C158.724 72.1645 159.38 71.926 159.881 71.4492C160.393 70.9723 160.721 70.2868 160.864 69.3927L161.276 66.8892L161.437 67.1216C161.115 67.8012 160.656 68.3317 160.06 68.7132C159.464 69.0827 158.79 69.2675 158.039 69.2675C157.347 69.2675 156.733 69.1185 156.197 68.8205C155.661 68.5105 155.243 68.0813 154.945 67.5329C154.647 66.9845 154.498 66.3467 154.498 65.6195ZM156.143 65.5122C156.143 66.2275 156.346 66.7998 156.751 67.2289C157.157 67.6581 157.687 67.8727 158.343 67.8727C158.963 67.8727 159.511 67.7177 159.988 67.4078C160.477 67.0978 160.858 66.6686 161.133 66.1202C161.419 65.5718 161.562 64.9519 161.562 64.2605C161.562 63.5571 161.359 62.9968 160.954 62.5795C160.548 62.1623 160 61.9536 159.309 61.9536C158.712 61.9536 158.176 62.1146 157.699 62.4365C157.222 62.7464 156.841 63.1696 156.555 63.7061C156.28 64.2426 156.143 64.8446 156.143 65.5122ZM164.869 69.5L166.264 60.7555H167.856L166.479 69.5H164.869ZM167.391 58.6454C167.128 58.6454 166.908 58.562 166.729 58.3951C166.55 58.2162 166.461 57.9957 166.461 57.7334C166.461 57.5188 166.52 57.3162 166.64 57.1254C166.759 56.9347 166.914 56.7797 167.105 56.6605C167.295 56.5293 167.498 56.4638 167.713 56.4638C167.987 56.4638 168.207 56.5532 168.374 56.732C168.541 56.9108 168.625 57.1254 168.625 57.3758C168.625 57.5904 168.565 57.799 168.446 58.0016C168.338 58.1924 168.189 58.3474 167.999 58.4666C167.808 58.5858 167.605 58.6454 167.391 58.6454ZM169.351 60.7555H174.322L174.107 62.1146H169.136L169.351 60.7555ZM171.246 69.5H169.655L171.461 58.0195H173.07L171.246 69.5ZM176.856 69.7146C176.081 69.7146 175.455 69.5 174.979 69.0708C174.502 68.6416 174.263 68.0754 174.263 67.372C174.263 66.4898 174.579 65.7805 175.211 65.244C175.843 64.7075 176.737 64.3916 177.893 64.2962L180.629 64.0816L180.665 63.8492C180.784 63.2054 180.683 62.7107 180.361 62.3649C180.051 62.0073 179.55 61.8285 178.859 61.8285C177.536 61.8285 176.779 62.3947 176.588 63.5273H175.104C175.259 62.5736 175.67 61.8344 176.338 61.3099C177.017 60.7853 177.905 60.5231 179.002 60.5231C180.158 60.5231 181.029 60.839 181.613 61.4708C182.209 62.0907 182.418 62.9312 182.239 63.9922L181.363 69.5H179.968L180.039 68.0694C179.753 68.582 179.318 68.9874 178.734 69.2854C178.162 69.5715 177.536 69.7146 176.856 69.7146ZM177.428 68.4449C178.215 68.4449 178.877 68.2005 179.413 67.7118C179.95 67.223 180.278 66.5554 180.397 65.7089L180.468 65.244L178.233 65.4228C177.458 65.4824 176.874 65.6672 176.481 65.9772C176.087 66.2871 175.891 66.7044 175.891 67.2289C175.891 67.5985 176.028 67.8965 176.302 68.1231C176.576 68.3376 176.952 68.4449 177.428 68.4449ZM185.358 69.5H183.748L185.823 56.3386H187.432L185.358 69.5ZM197.071 69.5H192.922L194.961 56.5711H198.859C200.004 56.5711 200.993 56.8155 201.828 57.3042C202.662 57.793 203.312 58.4666 203.777 59.3249C204.242 60.1714 204.474 61.143 204.474 62.2398C204.474 63.3604 204.29 64.3678 203.92 65.2619C203.55 66.1441 203.032 66.9071 202.364 67.5508C201.709 68.1827 200.928 68.6655 200.022 68.9993C199.128 69.3331 198.144 69.5 197.071 69.5ZM196.517 57.3579L194.728 68.7132L194.049 67.9264H197.214C198.287 67.9264 199.235 67.7058 200.057 67.2647C200.88 66.8117 201.524 66.162 201.989 65.3155C202.466 64.4572 202.704 63.4319 202.704 62.2398C202.704 61.4172 202.543 60.7019 202.221 60.0939C201.899 59.474 201.428 58.9911 200.808 58.6454C200.189 58.2997 199.449 58.1268 198.591 58.1268H195.605L196.517 57.3579ZM209.282 69.7146C208.507 69.7146 207.828 69.5536 207.244 69.2318C206.672 68.9099 206.224 68.4569 205.903 67.8727C205.593 67.2885 205.438 66.6031 205.438 65.8162C205.438 64.8148 205.646 63.9147 206.064 63.116C206.493 62.3173 207.065 61.6854 207.78 61.2205C208.507 60.7555 209.318 60.5231 210.212 60.5231C211.047 60.5231 211.75 60.7078 212.322 61.0774C212.895 61.447 213.306 61.9536 213.556 62.5974C213.818 63.2412 213.884 63.9803 213.753 64.8148L213.664 65.4228L206.296 65.4407L206.493 64.3499H212.215C212.334 63.5988 212.197 63.0027 211.804 62.5616C211.422 62.1086 210.868 61.8821 210.141 61.8821C209.557 61.8821 209.026 62.055 208.549 62.4007C208.072 62.7345 207.697 63.1935 207.423 63.7776C207.148 64.3499 207.011 64.9996 207.011 65.7268C207.011 66.5494 207.214 67.1932 207.619 67.6581C208.037 68.1231 208.609 68.3555 209.336 68.3555C209.908 68.3555 210.421 68.2184 210.874 67.9442C211.327 67.67 211.649 67.2885 211.84 66.7998H213.449C213.246 67.3958 212.936 67.9144 212.519 68.3555C212.114 68.7966 211.631 69.1364 211.071 69.3748C210.522 69.6013 209.926 69.7146 209.282 69.7146ZM214.509 66.9965H216.083C216.094 67.4376 216.261 67.7893 216.583 68.0515C216.905 68.3138 217.328 68.4449 217.853 68.4449C218.401 68.4449 218.842 68.3198 219.176 68.0694C219.522 67.8191 219.695 67.4972 219.695 67.1038C219.695 66.7938 219.617 66.5554 219.462 66.3885C219.319 66.2096 219.057 66.0547 218.675 65.9235L217.227 65.4407C216.619 65.2261 216.154 64.934 215.832 64.5645C215.51 64.1949 215.349 63.73 215.349 63.1696C215.349 62.3709 215.647 61.7331 216.243 61.2562C216.851 60.7675 217.65 60.5231 218.64 60.5231C219.272 60.5231 219.808 60.6363 220.249 60.8628C220.702 61.0893 221.054 61.4053 221.304 61.8106C221.555 62.2159 221.68 62.6928 221.68 63.2412H220.106C220.094 62.7643 219.957 62.4067 219.695 62.1682C219.432 61.9179 219.045 61.7927 218.532 61.7927C218.032 61.7927 217.632 61.906 217.334 62.1325C217.048 62.3471 216.905 62.6511 216.905 63.0445C216.905 63.6048 217.269 64.0161 217.996 64.2784L219.427 64.7612C220.07 64.9758 220.535 65.2619 220.821 65.6195C221.119 65.9653 221.268 66.4123 221.268 66.9607C221.268 67.5091 221.119 67.9919 220.821 68.4092C220.535 68.8145 220.13 69.1364 219.605 69.3748C219.081 69.6013 218.467 69.7146 217.763 69.7146C216.798 69.7146 216.011 69.4642 215.403 68.9635C214.807 68.4628 214.509 67.8071 214.509 66.9965ZM222.707 69.5L224.102 60.7555H225.694L224.317 69.5H222.707ZM225.229 58.6454C224.967 58.6454 224.746 58.562 224.567 58.3951C224.388 58.2162 224.299 57.9957 224.299 57.7334C224.299 57.5188 224.359 57.3162 224.478 57.1254C224.597 56.9347 224.752 56.7797 224.943 56.6605C225.134 56.5293 225.336 56.4638 225.551 56.4638C225.825 56.4638 226.046 56.5532 226.212 56.732C226.379 56.9108 226.463 57.1254 226.463 57.3758C226.463 57.5904 226.403 57.799 226.284 58.0016C226.177 58.1924 226.028 58.3474 225.837 58.4666C225.646 58.5858 225.443 58.6454 225.229 58.6454ZM226.813 65.6195C226.813 64.9042 226.933 64.2426 227.171 63.6346C227.41 63.0147 227.743 62.4782 228.173 62.0252C228.614 61.5602 229.114 61.1966 229.675 60.9344C230.247 60.6602 230.861 60.5231 231.517 60.5231C232.256 60.5231 232.887 60.7138 233.412 61.0953C233.949 61.4649 234.282 61.9715 234.413 62.6153H234.199L234.664 60.7555H236.148L234.825 69.1602C234.598 70.6385 234.092 71.7532 233.305 72.5042C232.53 73.2553 231.493 73.6308 230.193 73.6308C229.406 73.6308 228.709 73.4818 228.101 73.1838C227.505 72.8976 227.034 72.4864 226.688 71.9499C226.354 71.4134 226.182 70.7935 226.17 70.0901H227.779C227.815 70.722 228.047 71.2227 228.477 71.5922C228.918 71.9737 229.502 72.1645 230.229 72.1645C231.04 72.1645 231.695 71.926 232.196 71.4492C232.709 70.9723 233.037 70.2868 233.18 69.3927L233.591 66.8892L233.752 67.1216C233.43 67.8012 232.971 68.3317 232.375 68.7132C231.779 69.0827 231.105 69.2675 230.354 69.2675C229.663 69.2675 229.049 69.1185 228.512 68.8205C227.976 68.5105 227.559 68.0813 227.261 67.5329C226.962 66.9845 226.813 66.3467 226.813 65.6195ZM228.459 65.5122C228.459 66.2275 228.661 66.7998 229.067 67.2289C229.472 67.6581 230.002 67.8727 230.658 67.8727C231.278 67.8727 231.826 67.7177 232.303 67.4078C232.792 67.0978 233.174 66.6686 233.448 66.1202C233.734 65.5718 233.877 64.9519 233.877 64.2605C233.877 63.5571 233.674 62.9968 233.269 62.5795C232.864 62.1623 232.315 61.9536 231.624 61.9536C231.028 61.9536 230.491 62.1146 230.014 62.4365C229.538 62.7464 229.156 63.1696 228.87 63.7061C228.596 64.2426 228.459 64.8446 228.459 65.5122ZM238.794 69.5H237.185L238.579 60.7555H240.01L239.974 62.1504C240.368 61.59 240.797 61.1787 241.262 60.9165C241.739 60.6423 242.293 60.5052 242.925 60.5052C243.592 60.5052 244.159 60.6661 244.624 60.988C245.089 61.298 245.428 61.7271 245.643 62.2755C245.857 62.8239 245.905 63.4498 245.786 64.1532L244.945 69.5H243.336L244.123 64.5287C244.266 63.7061 244.182 63.0743 243.873 62.6332C243.563 62.1921 243.062 61.9715 242.37 61.9715C241.631 61.9715 241.005 62.2338 240.493 62.7584C239.992 63.271 239.67 63.9803 239.527 64.8864L238.794 69.5ZM252.886 69.5H251.062L257.732 56.5711H259.627L262.202 69.5H260.504L259.878 66.2454H254.549L252.886 69.5ZM258.107 59.2355L255.282 64.7969H259.61L258.519 59.2355C258.507 59.1163 258.489 58.9911 258.465 58.86C258.441 58.7289 258.429 58.6156 258.429 58.5202C258.405 58.6037 258.364 58.711 258.304 58.8421C258.245 58.9733 258.179 59.1044 258.107 59.2355ZM263.504 65.6195C263.504 64.9042 263.623 64.2426 263.861 63.6346C264.1 63.0147 264.434 62.4782 264.863 62.0252C265.304 61.5602 265.805 61.1966 266.365 60.9344C266.937 60.6602 267.551 60.5231 268.207 60.5231C268.946 60.5231 269.578 60.7138 270.102 61.0953C270.639 61.4649 270.973 61.9715 271.104 62.6153H270.889L271.354 60.7555H272.838L271.515 69.1602C271.288 70.6385 270.782 71.7532 269.995 72.5042C269.22 73.2553 268.183 73.6308 266.883 73.6308C266.097 73.6308 265.399 73.4818 264.791 73.1838C264.195 72.8976 263.724 72.4864 263.379 71.9499C263.045 71.4134 262.872 70.7935 262.86 70.0901H264.469C264.505 70.722 264.738 71.2227 265.167 71.5922C265.608 71.9737 266.192 72.1645 266.919 72.1645C267.73 72.1645 268.386 71.926 268.886 71.4492C269.399 70.9723 269.727 70.2868 269.87 69.3927L270.281 66.8892L270.442 67.1216C270.12 67.8012 269.661 68.3317 269.065 68.7132C268.469 69.0827 267.795 69.2675 267.044 69.2675C266.353 69.2675 265.739 69.1185 265.203 68.8205C264.666 68.5105 264.249 68.0813 263.951 67.5329C263.653 66.9845 263.504 66.3467 263.504 65.6195ZM265.149 65.5122C265.149 66.2275 265.352 66.7998 265.757 67.2289C266.162 67.6581 266.693 67.8727 267.348 67.8727C267.968 67.8727 268.517 67.7177 268.994 67.4078C269.482 67.0978 269.864 66.6686 270.138 66.1202C270.424 65.5718 270.567 64.9519 270.567 64.2605C270.567 63.5571 270.365 62.9968 269.959 62.5795C269.554 62.1623 269.006 61.9536 268.314 61.9536C267.718 61.9536 267.182 62.1146 266.705 62.4365C266.228 62.7464 265.846 63.1696 265.56 63.7061C265.286 64.2426 265.149 64.8446 265.149 65.5122ZM277.773 69.7146C276.998 69.7146 276.319 69.5536 275.735 69.2318C275.162 68.9099 274.715 68.4569 274.393 67.8727C274.083 67.2885 273.928 66.6031 273.928 65.8162C273.928 64.8148 274.137 63.9147 274.554 63.116C274.983 62.3173 275.556 61.6854 276.271 61.2205C276.998 60.7555 277.809 60.5231 278.703 60.5231C279.538 60.5231 280.241 60.7078 280.813 61.0774C281.385 61.447 281.797 61.9536 282.047 62.5974C282.309 63.2412 282.375 63.9803 282.244 64.8148L282.154 65.4228L274.787 65.4407L274.983 64.3499H280.706C280.825 63.5988 280.688 63.0027 280.295 62.5616C279.913 62.1086 279.359 61.8821 278.631 61.8821C278.047 61.8821 277.517 62.055 277.04 62.4007C276.563 62.7345 276.188 63.1935 275.913 63.7776C275.639 64.3499 275.502 64.9996 275.502 65.7268C275.502 66.5494 275.705 67.1932 276.11 67.6581C276.527 68.1231 277.1 68.3555 277.827 68.3555C278.399 68.3555 278.912 68.2184 279.365 67.9442C279.818 67.67 280.14 67.2885 280.33 66.7998H281.94C281.737 67.3958 281.427 67.9144 281.01 68.3555C280.605 68.7966 280.122 69.1364 279.561 69.3748C279.013 69.6013 278.417 69.7146 277.773 69.7146ZM284.967 69.5H283.357L284.752 60.7555H286.183L286.147 62.1504C286.54 61.59 286.97 61.1787 287.434 60.9165C287.911 60.6423 288.466 60.5052 289.098 60.5052C289.765 60.5052 290.331 60.6661 290.796 60.988C291.261 61.298 291.601 61.7271 291.816 62.2755C292.03 62.8239 292.078 63.4498 291.959 64.1532L291.118 69.5H289.509L290.296 64.5287C290.439 63.7061 290.355 63.0743 290.045 62.6332C289.735 62.1921 289.235 61.9715 288.543 61.9715C287.804 61.9715 287.178 62.2338 286.666 62.7584C286.165 63.271 285.843 63.9803 285.7 64.8864L284.967 69.5ZM293.505 65.8162C293.505 64.8148 293.713 63.9147 294.131 63.116C294.56 62.3173 295.132 61.6854 295.847 61.2205C296.575 60.7555 297.385 60.5231 298.279 60.5231C299.34 60.5231 300.187 60.8032 300.819 61.3635C301.45 61.9238 301.802 62.7047 301.874 63.7061H300.228C300.181 63.1577 299.978 62.7345 299.62 62.4365C299.263 62.1265 298.792 61.9715 298.208 61.9715C297.636 61.9715 297.117 62.1384 296.652 62.4722C296.187 62.806 295.817 63.2531 295.543 63.8134C295.281 64.3737 295.15 65.0115 295.15 65.7268C295.15 66.5017 295.353 67.1216 295.758 67.5866C296.175 68.0515 296.724 68.284 297.403 68.284C297.975 68.284 298.482 68.129 298.923 67.8191C299.364 67.4972 299.68 67.074 299.871 66.5494H301.534C301.343 67.1932 301.045 67.7535 300.64 68.2304C300.246 68.7072 299.764 69.0768 299.191 69.3391C298.631 69.5894 298.017 69.7146 297.349 69.7146C296.575 69.7146 295.895 69.5536 295.311 69.2318C294.739 68.9099 294.292 68.4569 293.97 67.8727C293.66 67.2885 293.505 66.6031 293.505 65.8162ZM304.568 60.7555L306.249 69.3212L305.104 70.6802L302.941 60.7555H304.568ZM301.188 73.3984L301.403 72.0572H302.476C302.714 72.0572 302.947 72.0274 303.173 71.9678C303.4 71.9201 303.614 71.8068 303.817 71.628C304.032 71.4492 304.228 71.1809 304.407 70.8233L309.611 60.7555H311.363L305.623 71.4671C305.265 72.1108 304.848 72.6175 304.371 72.9871C303.906 73.3685 303.304 73.5593 302.565 73.5593C302.291 73.5593 302.047 73.5474 301.832 73.5235C301.606 73.4997 301.391 73.458 301.188 73.3984Z" fill="black"/>
<defs>
<linearGradient id="paint0_linear_3_52" x1="58.2011" y1="0" x2="58.2011" y2="80" gradientUnits="userSpaceOnUse">
<stop stop-color="#BF73F2"/>
<stop offset="1" stop-color="#6237F0"/>
</linearGradient>
<linearGradient id="paint1_linear_3_52" x1="283.608" y1="5.5" x2="283.608" y2="50.5" gradientUnits="userSpaceOnUse">
<stop stop-color="#BF73F2"/>
<stop offset="1" stop-color="#6237F0"/>
</linearGradient>
</defs>
</svg>
